%TF.GenerationSoftware,KiCad,Pcbnew,9.0.7*%
%TF.CreationDate,2026-01-12T11:45:57+08:00*%
%TF.ProjectId,Motherboard,4d6f7468-6572-4626-9f61-72642e6b6963,rev?*%
%TF.SameCoordinates,Original*%
%TF.FileFunction,Soldermask,Top*%
%TF.FilePolarity,Negative*%
%FSLAX46Y46*%
G04 Gerber Fmt 4.6, Leading zero omitted, Abs format (unit mm)*
G04 Created by KiCad (PCBNEW 9.0.7) date 2026-01-12 11:45:57*
%MOMM*%
%LPD*%
G01*
G04 APERTURE LIST*
G04 Aperture macros list*
%AMRoundRect*
0 Rectangle with rounded corners*
0 $1 Rounding radius*
0 $2 $3 $4 $5 $6 $7 $8 $9 X,Y pos of 4 corners*
0 Add a 4 corners polygon primitive as box body*
4,1,4,$2,$3,$4,$5,$6,$7,$8,$9,$2,$3,0*
0 Add four circle primitives for the rounded corners*
1,1,$1+$1,$2,$3*
1,1,$1+$1,$4,$5*
1,1,$1+$1,$6,$7*
1,1,$1+$1,$8,$9*
0 Add four rect primitives between the rounded corners*
20,1,$1+$1,$2,$3,$4,$5,0*
20,1,$1+$1,$4,$5,$6,$7,0*
20,1,$1+$1,$6,$7,$8,$9,0*
20,1,$1+$1,$8,$9,$2,$3,0*%
G04 Aperture macros list end*
%ADD10R,1.700000X1.700000*%
%ADD11C,1.600000*%
%ADD12RoundRect,0.250000X-0.550000X-0.550000X0.550000X-0.550000X0.550000X0.550000X-0.550000X0.550000X0*%
G04 APERTURE END LIST*
D10*
%TO.C,C-1*%
X111000000Y-142000000D03*
%TD*%
%TO.C,C-2*%
X115000000Y-142000000D03*
%TD*%
%TO.C,C-3*%
X119000000Y-142000000D03*
%TD*%
%TO.C,C-4*%
X123000000Y-142000000D03*
%TD*%
%TO.C,C1*%
X111000000Y-138000000D03*
%TD*%
%TO.C,C2*%
X115000000Y-138000000D03*
%TD*%
%TO.C,C3*%
X119000000Y-138000000D03*
%TD*%
%TO.C,C4*%
X123000000Y-138000000D03*
%TD*%
D11*
%TO.C,U1*%
X103500000Y-118720000D03*
X103500000Y-121260000D03*
X103500000Y-123800000D03*
X103500000Y-126340000D03*
X103500000Y-128880000D03*
X103500000Y-131420000D03*
X103500000Y-133960000D03*
X103500000Y-136500000D03*
X95880000Y-136500000D03*
X95880000Y-133960000D03*
X95880000Y-131420000D03*
X95880000Y-128880000D03*
X95880000Y-126340000D03*
X95880000Y-123800000D03*
X95880000Y-121260000D03*
D12*
X95880000Y-118720000D03*
%TD*%
D10*
%TO.C,Vdd1*%
X112000000Y-116000000D03*
%TD*%
%TO.C,MOSI2*%
X125000000Y-132500000D03*
%TD*%
%TO.C,MISO2*%
X125000000Y-128500000D03*
%TD*%
%TO.C,CLK2*%
X125000000Y-124500000D03*
%TD*%
%TO.C,CH7*%
X92000000Y-142500000D03*
%TD*%
%TO.C,CH0*%
X92000000Y-114500000D03*
%TD*%
%TO.C,GND1*%
X112000000Y-120000000D03*
%TD*%
%TO.C,CH2*%
X92000000Y-122500000D03*
%TD*%
%TO.C,CH4*%
X92000000Y-130500000D03*
%TD*%
%TO.C,MISO1*%
X112000000Y-128000000D03*
%TD*%
%TO.C,MOSI1*%
X112000000Y-132000000D03*
%TD*%
%TO.C,CH6*%
X92000000Y-138500000D03*
%TD*%
%TO.C,CH1*%
X92000000Y-118500000D03*
%TD*%
%TO.C,CH5*%
X92000000Y-134500000D03*
%TD*%
%TO.C,CH3*%
X92000000Y-126500000D03*
%TD*%
%TO.C,CS1*%
X106500000Y-134000000D03*
%TD*%
%TO.C,CLK3*%
X112000000Y-124000000D03*
%TD*%
M02*
