%TF.GenerationSoftware,KiCad,Pcbnew,9.0.7*%
%TF.CreationDate,2026-01-12T11:45:57+08:00*%
%TF.ProjectId,Motherboard,4d6f7468-6572-4626-9f61-72642e6b6963,rev?*%
%TF.SameCoordinates,Original*%
%TF.FileFunction,Legend,Top*%
%TF.FilePolarity,Positive*%
%FSLAX46Y46*%
G04 Gerber Fmt 4.6, Leading zero omitted, Abs format (unit mm)*
G04 Created by KiCad (PCBNEW 9.0.7) date 2026-01-12 11:45:57*
%MOMM*%
%LPD*%
G01*
G04 APERTURE LIST*
%ADD10C,0.000000*%
%ADD11C,0.300000*%
%ADD12C,0.150000*%
%ADD13C,0.120000*%
G04 APERTURE END LIST*
D10*
G36*
X127279413Y-135087863D02*
G01*
X127311341Y-135091289D01*
X127344290Y-135097623D01*
X127378210Y-135106971D01*
X127413053Y-135119444D01*
X127448771Y-135135147D01*
X127485315Y-135154189D01*
X127522638Y-135176679D01*
X127560689Y-135202723D01*
X127599422Y-135232431D01*
X127599422Y-135232438D01*
X127850655Y-135495588D01*
X128126083Y-135772153D01*
X128729044Y-136350295D01*
X129367338Y-136936399D01*
X130000000Y-137500000D01*
X131084560Y-138437833D01*
X131654995Y-138920075D01*
X131669488Y-138931116D01*
X131683008Y-138942422D01*
X131695551Y-138953971D01*
X131707116Y-138965738D01*
X131717697Y-138977701D01*
X131727294Y-138989834D01*
X131735902Y-139002114D01*
X131743519Y-139014518D01*
X131750141Y-139027020D01*
X131755766Y-139039599D01*
X131760391Y-139052229D01*
X131764012Y-139064887D01*
X131766626Y-139077549D01*
X131768232Y-139090191D01*
X131768825Y-139102790D01*
X131768402Y-139115321D01*
X131766961Y-139127761D01*
X131764499Y-139140086D01*
X131761012Y-139152271D01*
X131756497Y-139164294D01*
X131750953Y-139176130D01*
X131744374Y-139187756D01*
X131736760Y-139199147D01*
X131728105Y-139210280D01*
X131718409Y-139221131D01*
X131707667Y-139231676D01*
X131695876Y-139241891D01*
X131683034Y-139251753D01*
X131669137Y-139261237D01*
X131654183Y-139270320D01*
X131638168Y-139278978D01*
X131621090Y-139287187D01*
X131142638Y-139524166D01*
X130659691Y-139767936D01*
X130181190Y-140014415D01*
X129716076Y-140259522D01*
X129701470Y-140266783D01*
X129687413Y-140274707D01*
X129674015Y-140283324D01*
X129661388Y-140292660D01*
X129655397Y-140297608D01*
X129649641Y-140302746D01*
X129644132Y-140308078D01*
X129638886Y-140313608D01*
X129633915Y-140319340D01*
X129629233Y-140325276D01*
X129624855Y-140331421D01*
X129620794Y-140337777D01*
X129617064Y-140344349D01*
X129613679Y-140351140D01*
X129610653Y-140358154D01*
X129607999Y-140365394D01*
X129605732Y-140372863D01*
X129603865Y-140380566D01*
X129602412Y-140388505D01*
X129601387Y-140396684D01*
X129600804Y-140405107D01*
X129600676Y-140413778D01*
X129601018Y-140422699D01*
X129601844Y-140431875D01*
X129603166Y-140441309D01*
X129605000Y-140451004D01*
X129607359Y-140460964D01*
X129610256Y-140471192D01*
X130361755Y-142366075D01*
X131124996Y-144267961D01*
X131132232Y-144284457D01*
X131138708Y-144302210D01*
X131149201Y-144340967D01*
X131156125Y-144383195D01*
X131159126Y-144427861D01*
X131157854Y-144473928D01*
X131155506Y-144497165D01*
X131151957Y-144520364D01*
X131147163Y-144543396D01*
X131141082Y-144566132D01*
X131133668Y-144588442D01*
X131124878Y-144610198D01*
X131114668Y-144631270D01*
X131102993Y-144651528D01*
X131089810Y-144670843D01*
X131075075Y-144689085D01*
X131058744Y-144706127D01*
X131040773Y-144721837D01*
X131021118Y-144736087D01*
X130999735Y-144748748D01*
X130976579Y-144759689D01*
X130951608Y-144768782D01*
X130924777Y-144775898D01*
X130896041Y-144780906D01*
X130865358Y-144783679D01*
X130832683Y-144784085D01*
X130797972Y-144781997D01*
X130761181Y-144777284D01*
X130203993Y-144356648D01*
X129645961Y-143944090D01*
X128525221Y-143138263D01*
X127394676Y-142349925D01*
X126250042Y-141569200D01*
X126236864Y-141554185D01*
X126224828Y-141539826D01*
X126213912Y-141526089D01*
X126204096Y-141512943D01*
X126195358Y-141500355D01*
X126187677Y-141488292D01*
X126181032Y-141476720D01*
X126175401Y-141465608D01*
X126170765Y-141454923D01*
X126167101Y-141444632D01*
X126164388Y-141434702D01*
X126162605Y-141425101D01*
X126161732Y-141415795D01*
X126161746Y-141406753D01*
X126162627Y-141397941D01*
X126164354Y-141389327D01*
X126166905Y-141380878D01*
X126170260Y-141372561D01*
X126174397Y-141364344D01*
X126179295Y-141356193D01*
X126184932Y-141348077D01*
X126191289Y-141339962D01*
X126198343Y-141331816D01*
X126206073Y-141323606D01*
X126223478Y-141306863D01*
X126243336Y-141289471D01*
X126265476Y-141271169D01*
X126289730Y-141251695D01*
X128604839Y-140047853D01*
X128613570Y-140043067D01*
X128621511Y-140038087D01*
X128628693Y-140032917D01*
X128635141Y-140027563D01*
X128640885Y-140022028D01*
X128645952Y-140016319D01*
X128650369Y-140010441D01*
X128654165Y-140004397D01*
X128657368Y-139998194D01*
X128660005Y-139991836D01*
X128662105Y-139985329D01*
X128663694Y-139978677D01*
X128664802Y-139971885D01*
X128665455Y-139964958D01*
X128665682Y-139957902D01*
X128665510Y-139950721D01*
X128664968Y-139943420D01*
X128664083Y-139936005D01*
X128661396Y-139920850D01*
X128657672Y-139905297D01*
X128653134Y-139889386D01*
X128631298Y-139822953D01*
X127810932Y-137682166D01*
X127602761Y-137147317D01*
X127389246Y-136615051D01*
X127168334Y-136086590D01*
X126937969Y-135563157D01*
X126933071Y-135529513D01*
X126930307Y-135496293D01*
X126929628Y-135463606D01*
X126930987Y-135431558D01*
X126934333Y-135400258D01*
X126939620Y-135369815D01*
X126946799Y-135340335D01*
X126955821Y-135311928D01*
X126966638Y-135284700D01*
X126979201Y-135258761D01*
X126993462Y-135234217D01*
X127009373Y-135211177D01*
X127026885Y-135189748D01*
X127045949Y-135170040D01*
X127066518Y-135152159D01*
X127088543Y-135136213D01*
X127111975Y-135122312D01*
X127136766Y-135110561D01*
X127162868Y-135101071D01*
X127190232Y-135093948D01*
X127218810Y-135089300D01*
X127248553Y-135087236D01*
X127279413Y-135087863D01*
G37*
D11*
X119983082Y-121729400D02*
X120197368Y-121800828D01*
X120197368Y-121800828D02*
X120554510Y-121800828D01*
X120554510Y-121800828D02*
X120697368Y-121729400D01*
X120697368Y-121729400D02*
X120768796Y-121657971D01*
X120768796Y-121657971D02*
X120840225Y-121515114D01*
X120840225Y-121515114D02*
X120840225Y-121372257D01*
X120840225Y-121372257D02*
X120768796Y-121229400D01*
X120768796Y-121229400D02*
X120697368Y-121157971D01*
X120697368Y-121157971D02*
X120554510Y-121086542D01*
X120554510Y-121086542D02*
X120268796Y-121015114D01*
X120268796Y-121015114D02*
X120125939Y-120943685D01*
X120125939Y-120943685D02*
X120054510Y-120872257D01*
X120054510Y-120872257D02*
X119983082Y-120729400D01*
X119983082Y-120729400D02*
X119983082Y-120586542D01*
X119983082Y-120586542D02*
X120054510Y-120443685D01*
X120054510Y-120443685D02*
X120125939Y-120372257D01*
X120125939Y-120372257D02*
X120268796Y-120300828D01*
X120268796Y-120300828D02*
X120625939Y-120300828D01*
X120625939Y-120300828D02*
X120840225Y-120372257D01*
X121483081Y-121800828D02*
X121483081Y-120300828D01*
X121483081Y-120300828D02*
X121840224Y-120300828D01*
X121840224Y-120300828D02*
X122054510Y-120372257D01*
X122054510Y-120372257D02*
X122197367Y-120515114D01*
X122197367Y-120515114D02*
X122268796Y-120657971D01*
X122268796Y-120657971D02*
X122340224Y-120943685D01*
X122340224Y-120943685D02*
X122340224Y-121157971D01*
X122340224Y-121157971D02*
X122268796Y-121443685D01*
X122268796Y-121443685D02*
X122197367Y-121586542D01*
X122197367Y-121586542D02*
X122054510Y-121729400D01*
X122054510Y-121729400D02*
X121840224Y-121800828D01*
X121840224Y-121800828D02*
X121483081Y-121800828D01*
X124983081Y-121657971D02*
X124911653Y-121729400D01*
X124911653Y-121729400D02*
X124697367Y-121800828D01*
X124697367Y-121800828D02*
X124554510Y-121800828D01*
X124554510Y-121800828D02*
X124340224Y-121729400D01*
X124340224Y-121729400D02*
X124197367Y-121586542D01*
X124197367Y-121586542D02*
X124125938Y-121443685D01*
X124125938Y-121443685D02*
X124054510Y-121157971D01*
X124054510Y-121157971D02*
X124054510Y-120943685D01*
X124054510Y-120943685D02*
X124125938Y-120657971D01*
X124125938Y-120657971D02*
X124197367Y-120515114D01*
X124197367Y-120515114D02*
X124340224Y-120372257D01*
X124340224Y-120372257D02*
X124554510Y-120300828D01*
X124554510Y-120300828D02*
X124697367Y-120300828D01*
X124697367Y-120300828D02*
X124911653Y-120372257D01*
X124911653Y-120372257D02*
X124983081Y-120443685D01*
X125554510Y-121372257D02*
X126268796Y-121372257D01*
X125411653Y-121800828D02*
X125911653Y-120300828D01*
X125911653Y-120300828D02*
X126411653Y-121800828D01*
X127768795Y-121800828D02*
X127268795Y-121086542D01*
X126911652Y-121800828D02*
X126911652Y-120300828D01*
X126911652Y-120300828D02*
X127483081Y-120300828D01*
X127483081Y-120300828D02*
X127625938Y-120372257D01*
X127625938Y-120372257D02*
X127697367Y-120443685D01*
X127697367Y-120443685D02*
X127768795Y-120586542D01*
X127768795Y-120586542D02*
X127768795Y-120800828D01*
X127768795Y-120800828D02*
X127697367Y-120943685D01*
X127697367Y-120943685D02*
X127625938Y-121015114D01*
X127625938Y-121015114D02*
X127483081Y-121086542D01*
X127483081Y-121086542D02*
X126911652Y-121086542D01*
X128411652Y-121800828D02*
X128411652Y-120300828D01*
X128411652Y-120300828D02*
X128768795Y-120300828D01*
X128768795Y-120300828D02*
X128983081Y-120372257D01*
X128983081Y-120372257D02*
X129125938Y-120515114D01*
X129125938Y-120515114D02*
X129197367Y-120657971D01*
X129197367Y-120657971D02*
X129268795Y-120943685D01*
X129268795Y-120943685D02*
X129268795Y-121157971D01*
X129268795Y-121157971D02*
X129197367Y-121443685D01*
X129197367Y-121443685D02*
X129125938Y-121586542D01*
X129125938Y-121586542D02*
X128983081Y-121729400D01*
X128983081Y-121729400D02*
X128768795Y-121800828D01*
X128768795Y-121800828D02*
X128411652Y-121800828D01*
D12*
X110214285Y-145359580D02*
X110166666Y-145407200D01*
X110166666Y-145407200D02*
X110023809Y-145454819D01*
X110023809Y-145454819D02*
X109928571Y-145454819D01*
X109928571Y-145454819D02*
X109785714Y-145407200D01*
X109785714Y-145407200D02*
X109690476Y-145311961D01*
X109690476Y-145311961D02*
X109642857Y-145216723D01*
X109642857Y-145216723D02*
X109595238Y-145026247D01*
X109595238Y-145026247D02*
X109595238Y-144883390D01*
X109595238Y-144883390D02*
X109642857Y-144692914D01*
X109642857Y-144692914D02*
X109690476Y-144597676D01*
X109690476Y-144597676D02*
X109785714Y-144502438D01*
X109785714Y-144502438D02*
X109928571Y-144454819D01*
X109928571Y-144454819D02*
X110023809Y-144454819D01*
X110023809Y-144454819D02*
X110166666Y-144502438D01*
X110166666Y-144502438D02*
X110214285Y-144550057D01*
X110642857Y-145073866D02*
X111404762Y-145073866D01*
X112404761Y-145454819D02*
X111833333Y-145454819D01*
X112119047Y-145454819D02*
X112119047Y-144454819D01*
X112119047Y-144454819D02*
X112023809Y-144597676D01*
X112023809Y-144597676D02*
X111928571Y-144692914D01*
X111928571Y-144692914D02*
X111833333Y-144740533D01*
X114214285Y-145359580D02*
X114166666Y-145407200D01*
X114166666Y-145407200D02*
X114023809Y-145454819D01*
X114023809Y-145454819D02*
X113928571Y-145454819D01*
X113928571Y-145454819D02*
X113785714Y-145407200D01*
X113785714Y-145407200D02*
X113690476Y-145311961D01*
X113690476Y-145311961D02*
X113642857Y-145216723D01*
X113642857Y-145216723D02*
X113595238Y-145026247D01*
X113595238Y-145026247D02*
X113595238Y-144883390D01*
X113595238Y-144883390D02*
X113642857Y-144692914D01*
X113642857Y-144692914D02*
X113690476Y-144597676D01*
X113690476Y-144597676D02*
X113785714Y-144502438D01*
X113785714Y-144502438D02*
X113928571Y-144454819D01*
X113928571Y-144454819D02*
X114023809Y-144454819D01*
X114023809Y-144454819D02*
X114166666Y-144502438D01*
X114166666Y-144502438D02*
X114214285Y-144550057D01*
X114642857Y-145073866D02*
X115404762Y-145073866D01*
X115833333Y-144550057D02*
X115880952Y-144502438D01*
X115880952Y-144502438D02*
X115976190Y-144454819D01*
X115976190Y-144454819D02*
X116214285Y-144454819D01*
X116214285Y-144454819D02*
X116309523Y-144502438D01*
X116309523Y-144502438D02*
X116357142Y-144550057D01*
X116357142Y-144550057D02*
X116404761Y-144645295D01*
X116404761Y-144645295D02*
X116404761Y-144740533D01*
X116404761Y-144740533D02*
X116357142Y-144883390D01*
X116357142Y-144883390D02*
X115785714Y-145454819D01*
X115785714Y-145454819D02*
X116404761Y-145454819D01*
X118214285Y-145359580D02*
X118166666Y-145407200D01*
X118166666Y-145407200D02*
X118023809Y-145454819D01*
X118023809Y-145454819D02*
X117928571Y-145454819D01*
X117928571Y-145454819D02*
X117785714Y-145407200D01*
X117785714Y-145407200D02*
X117690476Y-145311961D01*
X117690476Y-145311961D02*
X117642857Y-145216723D01*
X117642857Y-145216723D02*
X117595238Y-145026247D01*
X117595238Y-145026247D02*
X117595238Y-144883390D01*
X117595238Y-144883390D02*
X117642857Y-144692914D01*
X117642857Y-144692914D02*
X117690476Y-144597676D01*
X117690476Y-144597676D02*
X117785714Y-144502438D01*
X117785714Y-144502438D02*
X117928571Y-144454819D01*
X117928571Y-144454819D02*
X118023809Y-144454819D01*
X118023809Y-144454819D02*
X118166666Y-144502438D01*
X118166666Y-144502438D02*
X118214285Y-144550057D01*
X118642857Y-145073866D02*
X119404762Y-145073866D01*
X119785714Y-144454819D02*
X120404761Y-144454819D01*
X120404761Y-144454819D02*
X120071428Y-144835771D01*
X120071428Y-144835771D02*
X120214285Y-144835771D01*
X120214285Y-144835771D02*
X120309523Y-144883390D01*
X120309523Y-144883390D02*
X120357142Y-144931009D01*
X120357142Y-144931009D02*
X120404761Y-145026247D01*
X120404761Y-145026247D02*
X120404761Y-145264342D01*
X120404761Y-145264342D02*
X120357142Y-145359580D01*
X120357142Y-145359580D02*
X120309523Y-145407200D01*
X120309523Y-145407200D02*
X120214285Y-145454819D01*
X120214285Y-145454819D02*
X119928571Y-145454819D01*
X119928571Y-145454819D02*
X119833333Y-145407200D01*
X119833333Y-145407200D02*
X119785714Y-145359580D01*
X122214285Y-145359580D02*
X122166666Y-145407200D01*
X122166666Y-145407200D02*
X122023809Y-145454819D01*
X122023809Y-145454819D02*
X121928571Y-145454819D01*
X121928571Y-145454819D02*
X121785714Y-145407200D01*
X121785714Y-145407200D02*
X121690476Y-145311961D01*
X121690476Y-145311961D02*
X121642857Y-145216723D01*
X121642857Y-145216723D02*
X121595238Y-145026247D01*
X121595238Y-145026247D02*
X121595238Y-144883390D01*
X121595238Y-144883390D02*
X121642857Y-144692914D01*
X121642857Y-144692914D02*
X121690476Y-144597676D01*
X121690476Y-144597676D02*
X121785714Y-144502438D01*
X121785714Y-144502438D02*
X121928571Y-144454819D01*
X121928571Y-144454819D02*
X122023809Y-144454819D01*
X122023809Y-144454819D02*
X122166666Y-144502438D01*
X122166666Y-144502438D02*
X122214285Y-144550057D01*
X122642857Y-145073866D02*
X123404762Y-145073866D01*
X124309523Y-144788152D02*
X124309523Y-145454819D01*
X124071428Y-144407200D02*
X123833333Y-145121485D01*
X123833333Y-145121485D02*
X124452380Y-145121485D01*
X110833333Y-135979580D02*
X110785714Y-136027200D01*
X110785714Y-136027200D02*
X110642857Y-136074819D01*
X110642857Y-136074819D02*
X110547619Y-136074819D01*
X110547619Y-136074819D02*
X110404762Y-136027200D01*
X110404762Y-136027200D02*
X110309524Y-135931961D01*
X110309524Y-135931961D02*
X110261905Y-135836723D01*
X110261905Y-135836723D02*
X110214286Y-135646247D01*
X110214286Y-135646247D02*
X110214286Y-135503390D01*
X110214286Y-135503390D02*
X110261905Y-135312914D01*
X110261905Y-135312914D02*
X110309524Y-135217676D01*
X110309524Y-135217676D02*
X110404762Y-135122438D01*
X110404762Y-135122438D02*
X110547619Y-135074819D01*
X110547619Y-135074819D02*
X110642857Y-135074819D01*
X110642857Y-135074819D02*
X110785714Y-135122438D01*
X110785714Y-135122438D02*
X110833333Y-135170057D01*
X111785714Y-136074819D02*
X111214286Y-136074819D01*
X111500000Y-136074819D02*
X111500000Y-135074819D01*
X111500000Y-135074819D02*
X111404762Y-135217676D01*
X111404762Y-135217676D02*
X111309524Y-135312914D01*
X111309524Y-135312914D02*
X111214286Y-135360533D01*
X114833333Y-135979580D02*
X114785714Y-136027200D01*
X114785714Y-136027200D02*
X114642857Y-136074819D01*
X114642857Y-136074819D02*
X114547619Y-136074819D01*
X114547619Y-136074819D02*
X114404762Y-136027200D01*
X114404762Y-136027200D02*
X114309524Y-135931961D01*
X114309524Y-135931961D02*
X114261905Y-135836723D01*
X114261905Y-135836723D02*
X114214286Y-135646247D01*
X114214286Y-135646247D02*
X114214286Y-135503390D01*
X114214286Y-135503390D02*
X114261905Y-135312914D01*
X114261905Y-135312914D02*
X114309524Y-135217676D01*
X114309524Y-135217676D02*
X114404762Y-135122438D01*
X114404762Y-135122438D02*
X114547619Y-135074819D01*
X114547619Y-135074819D02*
X114642857Y-135074819D01*
X114642857Y-135074819D02*
X114785714Y-135122438D01*
X114785714Y-135122438D02*
X114833333Y-135170057D01*
X115214286Y-135170057D02*
X115261905Y-135122438D01*
X115261905Y-135122438D02*
X115357143Y-135074819D01*
X115357143Y-135074819D02*
X115595238Y-135074819D01*
X115595238Y-135074819D02*
X115690476Y-135122438D01*
X115690476Y-135122438D02*
X115738095Y-135170057D01*
X115738095Y-135170057D02*
X115785714Y-135265295D01*
X115785714Y-135265295D02*
X115785714Y-135360533D01*
X115785714Y-135360533D02*
X115738095Y-135503390D01*
X115738095Y-135503390D02*
X115166667Y-136074819D01*
X115166667Y-136074819D02*
X115785714Y-136074819D01*
X118833333Y-135979580D02*
X118785714Y-136027200D01*
X118785714Y-136027200D02*
X118642857Y-136074819D01*
X118642857Y-136074819D02*
X118547619Y-136074819D01*
X118547619Y-136074819D02*
X118404762Y-136027200D01*
X118404762Y-136027200D02*
X118309524Y-135931961D01*
X118309524Y-135931961D02*
X118261905Y-135836723D01*
X118261905Y-135836723D02*
X118214286Y-135646247D01*
X118214286Y-135646247D02*
X118214286Y-135503390D01*
X118214286Y-135503390D02*
X118261905Y-135312914D01*
X118261905Y-135312914D02*
X118309524Y-135217676D01*
X118309524Y-135217676D02*
X118404762Y-135122438D01*
X118404762Y-135122438D02*
X118547619Y-135074819D01*
X118547619Y-135074819D02*
X118642857Y-135074819D01*
X118642857Y-135074819D02*
X118785714Y-135122438D01*
X118785714Y-135122438D02*
X118833333Y-135170057D01*
X119166667Y-135074819D02*
X119785714Y-135074819D01*
X119785714Y-135074819D02*
X119452381Y-135455771D01*
X119452381Y-135455771D02*
X119595238Y-135455771D01*
X119595238Y-135455771D02*
X119690476Y-135503390D01*
X119690476Y-135503390D02*
X119738095Y-135551009D01*
X119738095Y-135551009D02*
X119785714Y-135646247D01*
X119785714Y-135646247D02*
X119785714Y-135884342D01*
X119785714Y-135884342D02*
X119738095Y-135979580D01*
X119738095Y-135979580D02*
X119690476Y-136027200D01*
X119690476Y-136027200D02*
X119595238Y-136074819D01*
X119595238Y-136074819D02*
X119309524Y-136074819D01*
X119309524Y-136074819D02*
X119214286Y-136027200D01*
X119214286Y-136027200D02*
X119166667Y-135979580D01*
X122833333Y-135979580D02*
X122785714Y-136027200D01*
X122785714Y-136027200D02*
X122642857Y-136074819D01*
X122642857Y-136074819D02*
X122547619Y-136074819D01*
X122547619Y-136074819D02*
X122404762Y-136027200D01*
X122404762Y-136027200D02*
X122309524Y-135931961D01*
X122309524Y-135931961D02*
X122261905Y-135836723D01*
X122261905Y-135836723D02*
X122214286Y-135646247D01*
X122214286Y-135646247D02*
X122214286Y-135503390D01*
X122214286Y-135503390D02*
X122261905Y-135312914D01*
X122261905Y-135312914D02*
X122309524Y-135217676D01*
X122309524Y-135217676D02*
X122404762Y-135122438D01*
X122404762Y-135122438D02*
X122547619Y-135074819D01*
X122547619Y-135074819D02*
X122642857Y-135074819D01*
X122642857Y-135074819D02*
X122785714Y-135122438D01*
X122785714Y-135122438D02*
X122833333Y-135170057D01*
X123690476Y-135408152D02*
X123690476Y-136074819D01*
X123452381Y-135027200D02*
X123214286Y-135741485D01*
X123214286Y-135741485D02*
X123833333Y-135741485D01*
X98928095Y-115844819D02*
X98928095Y-116654342D01*
X98928095Y-116654342D02*
X98975714Y-116749580D01*
X98975714Y-116749580D02*
X99023333Y-116797200D01*
X99023333Y-116797200D02*
X99118571Y-116844819D01*
X99118571Y-116844819D02*
X99309047Y-116844819D01*
X99309047Y-116844819D02*
X99404285Y-116797200D01*
X99404285Y-116797200D02*
X99451904Y-116749580D01*
X99451904Y-116749580D02*
X99499523Y-116654342D01*
X99499523Y-116654342D02*
X99499523Y-115844819D01*
X100499523Y-116844819D02*
X99928095Y-116844819D01*
X100213809Y-116844819D02*
X100213809Y-115844819D01*
X100213809Y-115844819D02*
X100118571Y-115987676D01*
X100118571Y-115987676D02*
X100023333Y-116082914D01*
X100023333Y-116082914D02*
X99928095Y-116130533D01*
X113785714Y-115454819D02*
X114119047Y-116454819D01*
X114119047Y-116454819D02*
X114452380Y-115454819D01*
X115214285Y-116454819D02*
X115214285Y-115454819D01*
X115214285Y-116407200D02*
X115119047Y-116454819D01*
X115119047Y-116454819D02*
X114928571Y-116454819D01*
X114928571Y-116454819D02*
X114833333Y-116407200D01*
X114833333Y-116407200D02*
X114785714Y-116359580D01*
X114785714Y-116359580D02*
X114738095Y-116264342D01*
X114738095Y-116264342D02*
X114738095Y-115978628D01*
X114738095Y-115978628D02*
X114785714Y-115883390D01*
X114785714Y-115883390D02*
X114833333Y-115835771D01*
X114833333Y-115835771D02*
X114928571Y-115788152D01*
X114928571Y-115788152D02*
X115119047Y-115788152D01*
X115119047Y-115788152D02*
X115214285Y-115835771D01*
X116119047Y-116454819D02*
X116119047Y-115454819D01*
X116119047Y-116407200D02*
X116023809Y-116454819D01*
X116023809Y-116454819D02*
X115833333Y-116454819D01*
X115833333Y-116454819D02*
X115738095Y-116407200D01*
X115738095Y-116407200D02*
X115690476Y-116359580D01*
X115690476Y-116359580D02*
X115642857Y-116264342D01*
X115642857Y-116264342D02*
X115642857Y-115978628D01*
X115642857Y-115978628D02*
X115690476Y-115883390D01*
X115690476Y-115883390D02*
X115738095Y-115835771D01*
X115738095Y-115835771D02*
X115833333Y-115788152D01*
X115833333Y-115788152D02*
X116023809Y-115788152D01*
X116023809Y-115788152D02*
X116119047Y-115835771D01*
X117119047Y-116454819D02*
X116547619Y-116454819D01*
X116833333Y-116454819D02*
X116833333Y-115454819D01*
X116833333Y-115454819D02*
X116738095Y-115597676D01*
X116738095Y-115597676D02*
X116642857Y-115692914D01*
X116642857Y-115692914D02*
X116547619Y-115740533D01*
X127452381Y-132954819D02*
X127452381Y-131954819D01*
X127452381Y-131954819D02*
X127785714Y-132669104D01*
X127785714Y-132669104D02*
X128119047Y-131954819D01*
X128119047Y-131954819D02*
X128119047Y-132954819D01*
X128785714Y-131954819D02*
X128976190Y-131954819D01*
X128976190Y-131954819D02*
X129071428Y-132002438D01*
X129071428Y-132002438D02*
X129166666Y-132097676D01*
X129166666Y-132097676D02*
X129214285Y-132288152D01*
X129214285Y-132288152D02*
X129214285Y-132621485D01*
X129214285Y-132621485D02*
X129166666Y-132811961D01*
X129166666Y-132811961D02*
X129071428Y-132907200D01*
X129071428Y-132907200D02*
X128976190Y-132954819D01*
X128976190Y-132954819D02*
X128785714Y-132954819D01*
X128785714Y-132954819D02*
X128690476Y-132907200D01*
X128690476Y-132907200D02*
X128595238Y-132811961D01*
X128595238Y-132811961D02*
X128547619Y-132621485D01*
X128547619Y-132621485D02*
X128547619Y-132288152D01*
X128547619Y-132288152D02*
X128595238Y-132097676D01*
X128595238Y-132097676D02*
X128690476Y-132002438D01*
X128690476Y-132002438D02*
X128785714Y-131954819D01*
X129595238Y-132907200D02*
X129738095Y-132954819D01*
X129738095Y-132954819D02*
X129976190Y-132954819D01*
X129976190Y-132954819D02*
X130071428Y-132907200D01*
X130071428Y-132907200D02*
X130119047Y-132859580D01*
X130119047Y-132859580D02*
X130166666Y-132764342D01*
X130166666Y-132764342D02*
X130166666Y-132669104D01*
X130166666Y-132669104D02*
X130119047Y-132573866D01*
X130119047Y-132573866D02*
X130071428Y-132526247D01*
X130071428Y-132526247D02*
X129976190Y-132478628D01*
X129976190Y-132478628D02*
X129785714Y-132431009D01*
X129785714Y-132431009D02*
X129690476Y-132383390D01*
X129690476Y-132383390D02*
X129642857Y-132335771D01*
X129642857Y-132335771D02*
X129595238Y-132240533D01*
X129595238Y-132240533D02*
X129595238Y-132145295D01*
X129595238Y-132145295D02*
X129642857Y-132050057D01*
X129642857Y-132050057D02*
X129690476Y-132002438D01*
X129690476Y-132002438D02*
X129785714Y-131954819D01*
X129785714Y-131954819D02*
X130023809Y-131954819D01*
X130023809Y-131954819D02*
X130166666Y-132002438D01*
X130595238Y-132954819D02*
X130595238Y-131954819D01*
X131023809Y-132050057D02*
X131071428Y-132002438D01*
X131071428Y-132002438D02*
X131166666Y-131954819D01*
X131166666Y-131954819D02*
X131404761Y-131954819D01*
X131404761Y-131954819D02*
X131499999Y-132002438D01*
X131499999Y-132002438D02*
X131547618Y-132050057D01*
X131547618Y-132050057D02*
X131595237Y-132145295D01*
X131595237Y-132145295D02*
X131595237Y-132240533D01*
X131595237Y-132240533D02*
X131547618Y-132383390D01*
X131547618Y-132383390D02*
X130976190Y-132954819D01*
X130976190Y-132954819D02*
X131595237Y-132954819D01*
X127452381Y-128954819D02*
X127452381Y-127954819D01*
X127452381Y-127954819D02*
X127785714Y-128669104D01*
X127785714Y-128669104D02*
X128119047Y-127954819D01*
X128119047Y-127954819D02*
X128119047Y-128954819D01*
X128595238Y-128954819D02*
X128595238Y-127954819D01*
X129023809Y-128907200D02*
X129166666Y-128954819D01*
X129166666Y-128954819D02*
X129404761Y-128954819D01*
X129404761Y-128954819D02*
X129499999Y-128907200D01*
X129499999Y-128907200D02*
X129547618Y-128859580D01*
X129547618Y-128859580D02*
X129595237Y-128764342D01*
X129595237Y-128764342D02*
X129595237Y-128669104D01*
X129595237Y-128669104D02*
X129547618Y-128573866D01*
X129547618Y-128573866D02*
X129499999Y-128526247D01*
X129499999Y-128526247D02*
X129404761Y-128478628D01*
X129404761Y-128478628D02*
X129214285Y-128431009D01*
X129214285Y-128431009D02*
X129119047Y-128383390D01*
X129119047Y-128383390D02*
X129071428Y-128335771D01*
X129071428Y-128335771D02*
X129023809Y-128240533D01*
X129023809Y-128240533D02*
X129023809Y-128145295D01*
X129023809Y-128145295D02*
X129071428Y-128050057D01*
X129071428Y-128050057D02*
X129119047Y-128002438D01*
X129119047Y-128002438D02*
X129214285Y-127954819D01*
X129214285Y-127954819D02*
X129452380Y-127954819D01*
X129452380Y-127954819D02*
X129595237Y-128002438D01*
X130214285Y-127954819D02*
X130404761Y-127954819D01*
X130404761Y-127954819D02*
X130499999Y-128002438D01*
X130499999Y-128002438D02*
X130595237Y-128097676D01*
X130595237Y-128097676D02*
X130642856Y-128288152D01*
X130642856Y-128288152D02*
X130642856Y-128621485D01*
X130642856Y-128621485D02*
X130595237Y-128811961D01*
X130595237Y-128811961D02*
X130499999Y-128907200D01*
X130499999Y-128907200D02*
X130404761Y-128954819D01*
X130404761Y-128954819D02*
X130214285Y-128954819D01*
X130214285Y-128954819D02*
X130119047Y-128907200D01*
X130119047Y-128907200D02*
X130023809Y-128811961D01*
X130023809Y-128811961D02*
X129976190Y-128621485D01*
X129976190Y-128621485D02*
X129976190Y-128288152D01*
X129976190Y-128288152D02*
X130023809Y-128097676D01*
X130023809Y-128097676D02*
X130119047Y-128002438D01*
X130119047Y-128002438D02*
X130214285Y-127954819D01*
X131023809Y-128050057D02*
X131071428Y-128002438D01*
X131071428Y-128002438D02*
X131166666Y-127954819D01*
X131166666Y-127954819D02*
X131404761Y-127954819D01*
X131404761Y-127954819D02*
X131499999Y-128002438D01*
X131499999Y-128002438D02*
X131547618Y-128050057D01*
X131547618Y-128050057D02*
X131595237Y-128145295D01*
X131595237Y-128145295D02*
X131595237Y-128240533D01*
X131595237Y-128240533D02*
X131547618Y-128383390D01*
X131547618Y-128383390D02*
X130976190Y-128954819D01*
X130976190Y-128954819D02*
X131595237Y-128954819D01*
X127928571Y-124859580D02*
X127880952Y-124907200D01*
X127880952Y-124907200D02*
X127738095Y-124954819D01*
X127738095Y-124954819D02*
X127642857Y-124954819D01*
X127642857Y-124954819D02*
X127500000Y-124907200D01*
X127500000Y-124907200D02*
X127404762Y-124811961D01*
X127404762Y-124811961D02*
X127357143Y-124716723D01*
X127357143Y-124716723D02*
X127309524Y-124526247D01*
X127309524Y-124526247D02*
X127309524Y-124383390D01*
X127309524Y-124383390D02*
X127357143Y-124192914D01*
X127357143Y-124192914D02*
X127404762Y-124097676D01*
X127404762Y-124097676D02*
X127500000Y-124002438D01*
X127500000Y-124002438D02*
X127642857Y-123954819D01*
X127642857Y-123954819D02*
X127738095Y-123954819D01*
X127738095Y-123954819D02*
X127880952Y-124002438D01*
X127880952Y-124002438D02*
X127928571Y-124050057D01*
X128833333Y-124954819D02*
X128357143Y-124954819D01*
X128357143Y-124954819D02*
X128357143Y-123954819D01*
X129166667Y-124954819D02*
X129166667Y-123954819D01*
X129738095Y-124954819D02*
X129309524Y-124383390D01*
X129738095Y-123954819D02*
X129166667Y-124526247D01*
X130119048Y-124050057D02*
X130166667Y-124002438D01*
X130166667Y-124002438D02*
X130261905Y-123954819D01*
X130261905Y-123954819D02*
X130500000Y-123954819D01*
X130500000Y-123954819D02*
X130595238Y-124002438D01*
X130595238Y-124002438D02*
X130642857Y-124050057D01*
X130642857Y-124050057D02*
X130690476Y-124145295D01*
X130690476Y-124145295D02*
X130690476Y-124240533D01*
X130690476Y-124240533D02*
X130642857Y-124383390D01*
X130642857Y-124383390D02*
X130071429Y-124954819D01*
X130071429Y-124954819D02*
X130690476Y-124954819D01*
X87309523Y-142859580D02*
X87261904Y-142907200D01*
X87261904Y-142907200D02*
X87119047Y-142954819D01*
X87119047Y-142954819D02*
X87023809Y-142954819D01*
X87023809Y-142954819D02*
X86880952Y-142907200D01*
X86880952Y-142907200D02*
X86785714Y-142811961D01*
X86785714Y-142811961D02*
X86738095Y-142716723D01*
X86738095Y-142716723D02*
X86690476Y-142526247D01*
X86690476Y-142526247D02*
X86690476Y-142383390D01*
X86690476Y-142383390D02*
X86738095Y-142192914D01*
X86738095Y-142192914D02*
X86785714Y-142097676D01*
X86785714Y-142097676D02*
X86880952Y-142002438D01*
X86880952Y-142002438D02*
X87023809Y-141954819D01*
X87023809Y-141954819D02*
X87119047Y-141954819D01*
X87119047Y-141954819D02*
X87261904Y-142002438D01*
X87261904Y-142002438D02*
X87309523Y-142050057D01*
X87738095Y-142954819D02*
X87738095Y-141954819D01*
X87738095Y-142431009D02*
X88309523Y-142431009D01*
X88309523Y-142954819D02*
X88309523Y-141954819D01*
X88690476Y-141954819D02*
X89357142Y-141954819D01*
X89357142Y-141954819D02*
X88928571Y-142954819D01*
X87309523Y-114859580D02*
X87261904Y-114907200D01*
X87261904Y-114907200D02*
X87119047Y-114954819D01*
X87119047Y-114954819D02*
X87023809Y-114954819D01*
X87023809Y-114954819D02*
X86880952Y-114907200D01*
X86880952Y-114907200D02*
X86785714Y-114811961D01*
X86785714Y-114811961D02*
X86738095Y-114716723D01*
X86738095Y-114716723D02*
X86690476Y-114526247D01*
X86690476Y-114526247D02*
X86690476Y-114383390D01*
X86690476Y-114383390D02*
X86738095Y-114192914D01*
X86738095Y-114192914D02*
X86785714Y-114097676D01*
X86785714Y-114097676D02*
X86880952Y-114002438D01*
X86880952Y-114002438D02*
X87023809Y-113954819D01*
X87023809Y-113954819D02*
X87119047Y-113954819D01*
X87119047Y-113954819D02*
X87261904Y-114002438D01*
X87261904Y-114002438D02*
X87309523Y-114050057D01*
X87738095Y-114954819D02*
X87738095Y-113954819D01*
X87738095Y-114431009D02*
X88309523Y-114431009D01*
X88309523Y-114954819D02*
X88309523Y-113954819D01*
X88976190Y-113954819D02*
X89071428Y-113954819D01*
X89071428Y-113954819D02*
X89166666Y-114002438D01*
X89166666Y-114002438D02*
X89214285Y-114050057D01*
X89214285Y-114050057D02*
X89261904Y-114145295D01*
X89261904Y-114145295D02*
X89309523Y-114335771D01*
X89309523Y-114335771D02*
X89309523Y-114573866D01*
X89309523Y-114573866D02*
X89261904Y-114764342D01*
X89261904Y-114764342D02*
X89214285Y-114859580D01*
X89214285Y-114859580D02*
X89166666Y-114907200D01*
X89166666Y-114907200D02*
X89071428Y-114954819D01*
X89071428Y-114954819D02*
X88976190Y-114954819D01*
X88976190Y-114954819D02*
X88880952Y-114907200D01*
X88880952Y-114907200D02*
X88833333Y-114859580D01*
X88833333Y-114859580D02*
X88785714Y-114764342D01*
X88785714Y-114764342D02*
X88738095Y-114573866D01*
X88738095Y-114573866D02*
X88738095Y-114335771D01*
X88738095Y-114335771D02*
X88785714Y-114145295D01*
X88785714Y-114145295D02*
X88833333Y-114050057D01*
X88833333Y-114050057D02*
X88880952Y-114002438D01*
X88880952Y-114002438D02*
X88976190Y-113954819D01*
X114261904Y-119502438D02*
X114166666Y-119454819D01*
X114166666Y-119454819D02*
X114023809Y-119454819D01*
X114023809Y-119454819D02*
X113880952Y-119502438D01*
X113880952Y-119502438D02*
X113785714Y-119597676D01*
X113785714Y-119597676D02*
X113738095Y-119692914D01*
X113738095Y-119692914D02*
X113690476Y-119883390D01*
X113690476Y-119883390D02*
X113690476Y-120026247D01*
X113690476Y-120026247D02*
X113738095Y-120216723D01*
X113738095Y-120216723D02*
X113785714Y-120311961D01*
X113785714Y-120311961D02*
X113880952Y-120407200D01*
X113880952Y-120407200D02*
X114023809Y-120454819D01*
X114023809Y-120454819D02*
X114119047Y-120454819D01*
X114119047Y-120454819D02*
X114261904Y-120407200D01*
X114261904Y-120407200D02*
X114309523Y-120359580D01*
X114309523Y-120359580D02*
X114309523Y-120026247D01*
X114309523Y-120026247D02*
X114119047Y-120026247D01*
X114738095Y-120454819D02*
X114738095Y-119454819D01*
X114738095Y-119454819D02*
X115309523Y-120454819D01*
X115309523Y-120454819D02*
X115309523Y-119454819D01*
X115785714Y-120454819D02*
X115785714Y-119454819D01*
X115785714Y-119454819D02*
X116023809Y-119454819D01*
X116023809Y-119454819D02*
X116166666Y-119502438D01*
X116166666Y-119502438D02*
X116261904Y-119597676D01*
X116261904Y-119597676D02*
X116309523Y-119692914D01*
X116309523Y-119692914D02*
X116357142Y-119883390D01*
X116357142Y-119883390D02*
X116357142Y-120026247D01*
X116357142Y-120026247D02*
X116309523Y-120216723D01*
X116309523Y-120216723D02*
X116261904Y-120311961D01*
X116261904Y-120311961D02*
X116166666Y-120407200D01*
X116166666Y-120407200D02*
X116023809Y-120454819D01*
X116023809Y-120454819D02*
X115785714Y-120454819D01*
X117309523Y-120454819D02*
X116738095Y-120454819D01*
X117023809Y-120454819D02*
X117023809Y-119454819D01*
X117023809Y-119454819D02*
X116928571Y-119597676D01*
X116928571Y-119597676D02*
X116833333Y-119692914D01*
X116833333Y-119692914D02*
X116738095Y-119740533D01*
X87309523Y-122859580D02*
X87261904Y-122907200D01*
X87261904Y-122907200D02*
X87119047Y-122954819D01*
X87119047Y-122954819D02*
X87023809Y-122954819D01*
X87023809Y-122954819D02*
X86880952Y-122907200D01*
X86880952Y-122907200D02*
X86785714Y-122811961D01*
X86785714Y-122811961D02*
X86738095Y-122716723D01*
X86738095Y-122716723D02*
X86690476Y-122526247D01*
X86690476Y-122526247D02*
X86690476Y-122383390D01*
X86690476Y-122383390D02*
X86738095Y-122192914D01*
X86738095Y-122192914D02*
X86785714Y-122097676D01*
X86785714Y-122097676D02*
X86880952Y-122002438D01*
X86880952Y-122002438D02*
X87023809Y-121954819D01*
X87023809Y-121954819D02*
X87119047Y-121954819D01*
X87119047Y-121954819D02*
X87261904Y-122002438D01*
X87261904Y-122002438D02*
X87309523Y-122050057D01*
X87738095Y-122954819D02*
X87738095Y-121954819D01*
X87738095Y-122431009D02*
X88309523Y-122431009D01*
X88309523Y-122954819D02*
X88309523Y-121954819D01*
X88738095Y-122050057D02*
X88785714Y-122002438D01*
X88785714Y-122002438D02*
X88880952Y-121954819D01*
X88880952Y-121954819D02*
X89119047Y-121954819D01*
X89119047Y-121954819D02*
X89214285Y-122002438D01*
X89214285Y-122002438D02*
X89261904Y-122050057D01*
X89261904Y-122050057D02*
X89309523Y-122145295D01*
X89309523Y-122145295D02*
X89309523Y-122240533D01*
X89309523Y-122240533D02*
X89261904Y-122383390D01*
X89261904Y-122383390D02*
X88690476Y-122954819D01*
X88690476Y-122954819D02*
X89309523Y-122954819D01*
X87309523Y-130859580D02*
X87261904Y-130907200D01*
X87261904Y-130907200D02*
X87119047Y-130954819D01*
X87119047Y-130954819D02*
X87023809Y-130954819D01*
X87023809Y-130954819D02*
X86880952Y-130907200D01*
X86880952Y-130907200D02*
X86785714Y-130811961D01*
X86785714Y-130811961D02*
X86738095Y-130716723D01*
X86738095Y-130716723D02*
X86690476Y-130526247D01*
X86690476Y-130526247D02*
X86690476Y-130383390D01*
X86690476Y-130383390D02*
X86738095Y-130192914D01*
X86738095Y-130192914D02*
X86785714Y-130097676D01*
X86785714Y-130097676D02*
X86880952Y-130002438D01*
X86880952Y-130002438D02*
X87023809Y-129954819D01*
X87023809Y-129954819D02*
X87119047Y-129954819D01*
X87119047Y-129954819D02*
X87261904Y-130002438D01*
X87261904Y-130002438D02*
X87309523Y-130050057D01*
X87738095Y-130954819D02*
X87738095Y-129954819D01*
X87738095Y-130431009D02*
X88309523Y-130431009D01*
X88309523Y-130954819D02*
X88309523Y-129954819D01*
X89214285Y-130288152D02*
X89214285Y-130954819D01*
X88976190Y-129907200D02*
X88738095Y-130621485D01*
X88738095Y-130621485D02*
X89357142Y-130621485D01*
X113952381Y-128454819D02*
X113952381Y-127454819D01*
X113952381Y-127454819D02*
X114285714Y-128169104D01*
X114285714Y-128169104D02*
X114619047Y-127454819D01*
X114619047Y-127454819D02*
X114619047Y-128454819D01*
X115095238Y-128454819D02*
X115095238Y-127454819D01*
X115523809Y-128407200D02*
X115666666Y-128454819D01*
X115666666Y-128454819D02*
X115904761Y-128454819D01*
X115904761Y-128454819D02*
X115999999Y-128407200D01*
X115999999Y-128407200D02*
X116047618Y-128359580D01*
X116047618Y-128359580D02*
X116095237Y-128264342D01*
X116095237Y-128264342D02*
X116095237Y-128169104D01*
X116095237Y-128169104D02*
X116047618Y-128073866D01*
X116047618Y-128073866D02*
X115999999Y-128026247D01*
X115999999Y-128026247D02*
X115904761Y-127978628D01*
X115904761Y-127978628D02*
X115714285Y-127931009D01*
X115714285Y-127931009D02*
X115619047Y-127883390D01*
X115619047Y-127883390D02*
X115571428Y-127835771D01*
X115571428Y-127835771D02*
X115523809Y-127740533D01*
X115523809Y-127740533D02*
X115523809Y-127645295D01*
X115523809Y-127645295D02*
X115571428Y-127550057D01*
X115571428Y-127550057D02*
X115619047Y-127502438D01*
X115619047Y-127502438D02*
X115714285Y-127454819D01*
X115714285Y-127454819D02*
X115952380Y-127454819D01*
X115952380Y-127454819D02*
X116095237Y-127502438D01*
X116714285Y-127454819D02*
X116904761Y-127454819D01*
X116904761Y-127454819D02*
X116999999Y-127502438D01*
X116999999Y-127502438D02*
X117095237Y-127597676D01*
X117095237Y-127597676D02*
X117142856Y-127788152D01*
X117142856Y-127788152D02*
X117142856Y-128121485D01*
X117142856Y-128121485D02*
X117095237Y-128311961D01*
X117095237Y-128311961D02*
X116999999Y-128407200D01*
X116999999Y-128407200D02*
X116904761Y-128454819D01*
X116904761Y-128454819D02*
X116714285Y-128454819D01*
X116714285Y-128454819D02*
X116619047Y-128407200D01*
X116619047Y-128407200D02*
X116523809Y-128311961D01*
X116523809Y-128311961D02*
X116476190Y-128121485D01*
X116476190Y-128121485D02*
X116476190Y-127788152D01*
X116476190Y-127788152D02*
X116523809Y-127597676D01*
X116523809Y-127597676D02*
X116619047Y-127502438D01*
X116619047Y-127502438D02*
X116714285Y-127454819D01*
X118095237Y-128454819D02*
X117523809Y-128454819D01*
X117809523Y-128454819D02*
X117809523Y-127454819D01*
X117809523Y-127454819D02*
X117714285Y-127597676D01*
X117714285Y-127597676D02*
X117619047Y-127692914D01*
X117619047Y-127692914D02*
X117523809Y-127740533D01*
X113952381Y-132454819D02*
X113952381Y-131454819D01*
X113952381Y-131454819D02*
X114285714Y-132169104D01*
X114285714Y-132169104D02*
X114619047Y-131454819D01*
X114619047Y-131454819D02*
X114619047Y-132454819D01*
X115285714Y-131454819D02*
X115476190Y-131454819D01*
X115476190Y-131454819D02*
X115571428Y-131502438D01*
X115571428Y-131502438D02*
X115666666Y-131597676D01*
X115666666Y-131597676D02*
X115714285Y-131788152D01*
X115714285Y-131788152D02*
X115714285Y-132121485D01*
X115714285Y-132121485D02*
X115666666Y-132311961D01*
X115666666Y-132311961D02*
X115571428Y-132407200D01*
X115571428Y-132407200D02*
X115476190Y-132454819D01*
X115476190Y-132454819D02*
X115285714Y-132454819D01*
X115285714Y-132454819D02*
X115190476Y-132407200D01*
X115190476Y-132407200D02*
X115095238Y-132311961D01*
X115095238Y-132311961D02*
X115047619Y-132121485D01*
X115047619Y-132121485D02*
X115047619Y-131788152D01*
X115047619Y-131788152D02*
X115095238Y-131597676D01*
X115095238Y-131597676D02*
X115190476Y-131502438D01*
X115190476Y-131502438D02*
X115285714Y-131454819D01*
X116095238Y-132407200D02*
X116238095Y-132454819D01*
X116238095Y-132454819D02*
X116476190Y-132454819D01*
X116476190Y-132454819D02*
X116571428Y-132407200D01*
X116571428Y-132407200D02*
X116619047Y-132359580D01*
X116619047Y-132359580D02*
X116666666Y-132264342D01*
X116666666Y-132264342D02*
X116666666Y-132169104D01*
X116666666Y-132169104D02*
X116619047Y-132073866D01*
X116619047Y-132073866D02*
X116571428Y-132026247D01*
X116571428Y-132026247D02*
X116476190Y-131978628D01*
X116476190Y-131978628D02*
X116285714Y-131931009D01*
X116285714Y-131931009D02*
X116190476Y-131883390D01*
X116190476Y-131883390D02*
X116142857Y-131835771D01*
X116142857Y-131835771D02*
X116095238Y-131740533D01*
X116095238Y-131740533D02*
X116095238Y-131645295D01*
X116095238Y-131645295D02*
X116142857Y-131550057D01*
X116142857Y-131550057D02*
X116190476Y-131502438D01*
X116190476Y-131502438D02*
X116285714Y-131454819D01*
X116285714Y-131454819D02*
X116523809Y-131454819D01*
X116523809Y-131454819D02*
X116666666Y-131502438D01*
X117095238Y-132454819D02*
X117095238Y-131454819D01*
X118095237Y-132454819D02*
X117523809Y-132454819D01*
X117809523Y-132454819D02*
X117809523Y-131454819D01*
X117809523Y-131454819D02*
X117714285Y-131597676D01*
X117714285Y-131597676D02*
X117619047Y-131692914D01*
X117619047Y-131692914D02*
X117523809Y-131740533D01*
X87309523Y-138859580D02*
X87261904Y-138907200D01*
X87261904Y-138907200D02*
X87119047Y-138954819D01*
X87119047Y-138954819D02*
X87023809Y-138954819D01*
X87023809Y-138954819D02*
X86880952Y-138907200D01*
X86880952Y-138907200D02*
X86785714Y-138811961D01*
X86785714Y-138811961D02*
X86738095Y-138716723D01*
X86738095Y-138716723D02*
X86690476Y-138526247D01*
X86690476Y-138526247D02*
X86690476Y-138383390D01*
X86690476Y-138383390D02*
X86738095Y-138192914D01*
X86738095Y-138192914D02*
X86785714Y-138097676D01*
X86785714Y-138097676D02*
X86880952Y-138002438D01*
X86880952Y-138002438D02*
X87023809Y-137954819D01*
X87023809Y-137954819D02*
X87119047Y-137954819D01*
X87119047Y-137954819D02*
X87261904Y-138002438D01*
X87261904Y-138002438D02*
X87309523Y-138050057D01*
X87738095Y-138954819D02*
X87738095Y-137954819D01*
X87738095Y-138431009D02*
X88309523Y-138431009D01*
X88309523Y-138954819D02*
X88309523Y-137954819D01*
X89214285Y-137954819D02*
X89023809Y-137954819D01*
X89023809Y-137954819D02*
X88928571Y-138002438D01*
X88928571Y-138002438D02*
X88880952Y-138050057D01*
X88880952Y-138050057D02*
X88785714Y-138192914D01*
X88785714Y-138192914D02*
X88738095Y-138383390D01*
X88738095Y-138383390D02*
X88738095Y-138764342D01*
X88738095Y-138764342D02*
X88785714Y-138859580D01*
X88785714Y-138859580D02*
X88833333Y-138907200D01*
X88833333Y-138907200D02*
X88928571Y-138954819D01*
X88928571Y-138954819D02*
X89119047Y-138954819D01*
X89119047Y-138954819D02*
X89214285Y-138907200D01*
X89214285Y-138907200D02*
X89261904Y-138859580D01*
X89261904Y-138859580D02*
X89309523Y-138764342D01*
X89309523Y-138764342D02*
X89309523Y-138526247D01*
X89309523Y-138526247D02*
X89261904Y-138431009D01*
X89261904Y-138431009D02*
X89214285Y-138383390D01*
X89214285Y-138383390D02*
X89119047Y-138335771D01*
X89119047Y-138335771D02*
X88928571Y-138335771D01*
X88928571Y-138335771D02*
X88833333Y-138383390D01*
X88833333Y-138383390D02*
X88785714Y-138431009D01*
X88785714Y-138431009D02*
X88738095Y-138526247D01*
X87309523Y-118859580D02*
X87261904Y-118907200D01*
X87261904Y-118907200D02*
X87119047Y-118954819D01*
X87119047Y-118954819D02*
X87023809Y-118954819D01*
X87023809Y-118954819D02*
X86880952Y-118907200D01*
X86880952Y-118907200D02*
X86785714Y-118811961D01*
X86785714Y-118811961D02*
X86738095Y-118716723D01*
X86738095Y-118716723D02*
X86690476Y-118526247D01*
X86690476Y-118526247D02*
X86690476Y-118383390D01*
X86690476Y-118383390D02*
X86738095Y-118192914D01*
X86738095Y-118192914D02*
X86785714Y-118097676D01*
X86785714Y-118097676D02*
X86880952Y-118002438D01*
X86880952Y-118002438D02*
X87023809Y-117954819D01*
X87023809Y-117954819D02*
X87119047Y-117954819D01*
X87119047Y-117954819D02*
X87261904Y-118002438D01*
X87261904Y-118002438D02*
X87309523Y-118050057D01*
X87738095Y-118954819D02*
X87738095Y-117954819D01*
X87738095Y-118431009D02*
X88309523Y-118431009D01*
X88309523Y-118954819D02*
X88309523Y-117954819D01*
X89309523Y-118954819D02*
X88738095Y-118954819D01*
X89023809Y-118954819D02*
X89023809Y-117954819D01*
X89023809Y-117954819D02*
X88928571Y-118097676D01*
X88928571Y-118097676D02*
X88833333Y-118192914D01*
X88833333Y-118192914D02*
X88738095Y-118240533D01*
X87309523Y-134859580D02*
X87261904Y-134907200D01*
X87261904Y-134907200D02*
X87119047Y-134954819D01*
X87119047Y-134954819D02*
X87023809Y-134954819D01*
X87023809Y-134954819D02*
X86880952Y-134907200D01*
X86880952Y-134907200D02*
X86785714Y-134811961D01*
X86785714Y-134811961D02*
X86738095Y-134716723D01*
X86738095Y-134716723D02*
X86690476Y-134526247D01*
X86690476Y-134526247D02*
X86690476Y-134383390D01*
X86690476Y-134383390D02*
X86738095Y-134192914D01*
X86738095Y-134192914D02*
X86785714Y-134097676D01*
X86785714Y-134097676D02*
X86880952Y-134002438D01*
X86880952Y-134002438D02*
X87023809Y-133954819D01*
X87023809Y-133954819D02*
X87119047Y-133954819D01*
X87119047Y-133954819D02*
X87261904Y-134002438D01*
X87261904Y-134002438D02*
X87309523Y-134050057D01*
X87738095Y-134954819D02*
X87738095Y-133954819D01*
X87738095Y-134431009D02*
X88309523Y-134431009D01*
X88309523Y-134954819D02*
X88309523Y-133954819D01*
X89261904Y-133954819D02*
X88785714Y-133954819D01*
X88785714Y-133954819D02*
X88738095Y-134431009D01*
X88738095Y-134431009D02*
X88785714Y-134383390D01*
X88785714Y-134383390D02*
X88880952Y-134335771D01*
X88880952Y-134335771D02*
X89119047Y-134335771D01*
X89119047Y-134335771D02*
X89214285Y-134383390D01*
X89214285Y-134383390D02*
X89261904Y-134431009D01*
X89261904Y-134431009D02*
X89309523Y-134526247D01*
X89309523Y-134526247D02*
X89309523Y-134764342D01*
X89309523Y-134764342D02*
X89261904Y-134859580D01*
X89261904Y-134859580D02*
X89214285Y-134907200D01*
X89214285Y-134907200D02*
X89119047Y-134954819D01*
X89119047Y-134954819D02*
X88880952Y-134954819D01*
X88880952Y-134954819D02*
X88785714Y-134907200D01*
X88785714Y-134907200D02*
X88738095Y-134859580D01*
X87309523Y-126859580D02*
X87261904Y-126907200D01*
X87261904Y-126907200D02*
X87119047Y-126954819D01*
X87119047Y-126954819D02*
X87023809Y-126954819D01*
X87023809Y-126954819D02*
X86880952Y-126907200D01*
X86880952Y-126907200D02*
X86785714Y-126811961D01*
X86785714Y-126811961D02*
X86738095Y-126716723D01*
X86738095Y-126716723D02*
X86690476Y-126526247D01*
X86690476Y-126526247D02*
X86690476Y-126383390D01*
X86690476Y-126383390D02*
X86738095Y-126192914D01*
X86738095Y-126192914D02*
X86785714Y-126097676D01*
X86785714Y-126097676D02*
X86880952Y-126002438D01*
X86880952Y-126002438D02*
X87023809Y-125954819D01*
X87023809Y-125954819D02*
X87119047Y-125954819D01*
X87119047Y-125954819D02*
X87261904Y-126002438D01*
X87261904Y-126002438D02*
X87309523Y-126050057D01*
X87738095Y-126954819D02*
X87738095Y-125954819D01*
X87738095Y-126431009D02*
X88309523Y-126431009D01*
X88309523Y-126954819D02*
X88309523Y-125954819D01*
X88690476Y-125954819D02*
X89309523Y-125954819D01*
X89309523Y-125954819D02*
X88976190Y-126335771D01*
X88976190Y-126335771D02*
X89119047Y-126335771D01*
X89119047Y-126335771D02*
X89214285Y-126383390D01*
X89214285Y-126383390D02*
X89261904Y-126431009D01*
X89261904Y-126431009D02*
X89309523Y-126526247D01*
X89309523Y-126526247D02*
X89309523Y-126764342D01*
X89309523Y-126764342D02*
X89261904Y-126859580D01*
X89261904Y-126859580D02*
X89214285Y-126907200D01*
X89214285Y-126907200D02*
X89119047Y-126954819D01*
X89119047Y-126954819D02*
X88833333Y-126954819D01*
X88833333Y-126954819D02*
X88738095Y-126907200D01*
X88738095Y-126907200D02*
X88690476Y-126859580D01*
X105857142Y-131979580D02*
X105809523Y-132027200D01*
X105809523Y-132027200D02*
X105666666Y-132074819D01*
X105666666Y-132074819D02*
X105571428Y-132074819D01*
X105571428Y-132074819D02*
X105428571Y-132027200D01*
X105428571Y-132027200D02*
X105333333Y-131931961D01*
X105333333Y-131931961D02*
X105285714Y-131836723D01*
X105285714Y-131836723D02*
X105238095Y-131646247D01*
X105238095Y-131646247D02*
X105238095Y-131503390D01*
X105238095Y-131503390D02*
X105285714Y-131312914D01*
X105285714Y-131312914D02*
X105333333Y-131217676D01*
X105333333Y-131217676D02*
X105428571Y-131122438D01*
X105428571Y-131122438D02*
X105571428Y-131074819D01*
X105571428Y-131074819D02*
X105666666Y-131074819D01*
X105666666Y-131074819D02*
X105809523Y-131122438D01*
X105809523Y-131122438D02*
X105857142Y-131170057D01*
X106238095Y-132027200D02*
X106380952Y-132074819D01*
X106380952Y-132074819D02*
X106619047Y-132074819D01*
X106619047Y-132074819D02*
X106714285Y-132027200D01*
X106714285Y-132027200D02*
X106761904Y-131979580D01*
X106761904Y-131979580D02*
X106809523Y-131884342D01*
X106809523Y-131884342D02*
X106809523Y-131789104D01*
X106809523Y-131789104D02*
X106761904Y-131693866D01*
X106761904Y-131693866D02*
X106714285Y-131646247D01*
X106714285Y-131646247D02*
X106619047Y-131598628D01*
X106619047Y-131598628D02*
X106428571Y-131551009D01*
X106428571Y-131551009D02*
X106333333Y-131503390D01*
X106333333Y-131503390D02*
X106285714Y-131455771D01*
X106285714Y-131455771D02*
X106238095Y-131360533D01*
X106238095Y-131360533D02*
X106238095Y-131265295D01*
X106238095Y-131265295D02*
X106285714Y-131170057D01*
X106285714Y-131170057D02*
X106333333Y-131122438D01*
X106333333Y-131122438D02*
X106428571Y-131074819D01*
X106428571Y-131074819D02*
X106666666Y-131074819D01*
X106666666Y-131074819D02*
X106809523Y-131122438D01*
X107761904Y-132074819D02*
X107190476Y-132074819D01*
X107476190Y-132074819D02*
X107476190Y-131074819D01*
X107476190Y-131074819D02*
X107380952Y-131217676D01*
X107380952Y-131217676D02*
X107285714Y-131312914D01*
X107285714Y-131312914D02*
X107190476Y-131360533D01*
X114428571Y-124359580D02*
X114380952Y-124407200D01*
X114380952Y-124407200D02*
X114238095Y-124454819D01*
X114238095Y-124454819D02*
X114142857Y-124454819D01*
X114142857Y-124454819D02*
X114000000Y-124407200D01*
X114000000Y-124407200D02*
X113904762Y-124311961D01*
X113904762Y-124311961D02*
X113857143Y-124216723D01*
X113857143Y-124216723D02*
X113809524Y-124026247D01*
X113809524Y-124026247D02*
X113809524Y-123883390D01*
X113809524Y-123883390D02*
X113857143Y-123692914D01*
X113857143Y-123692914D02*
X113904762Y-123597676D01*
X113904762Y-123597676D02*
X114000000Y-123502438D01*
X114000000Y-123502438D02*
X114142857Y-123454819D01*
X114142857Y-123454819D02*
X114238095Y-123454819D01*
X114238095Y-123454819D02*
X114380952Y-123502438D01*
X114380952Y-123502438D02*
X114428571Y-123550057D01*
X115333333Y-124454819D02*
X114857143Y-124454819D01*
X114857143Y-124454819D02*
X114857143Y-123454819D01*
X115666667Y-124454819D02*
X115666667Y-123454819D01*
X116238095Y-124454819D02*
X115809524Y-123883390D01*
X116238095Y-123454819D02*
X115666667Y-124026247D01*
X116571429Y-123454819D02*
X117190476Y-123454819D01*
X117190476Y-123454819D02*
X116857143Y-123835771D01*
X116857143Y-123835771D02*
X117000000Y-123835771D01*
X117000000Y-123835771D02*
X117095238Y-123883390D01*
X117095238Y-123883390D02*
X117142857Y-123931009D01*
X117142857Y-123931009D02*
X117190476Y-124026247D01*
X117190476Y-124026247D02*
X117190476Y-124264342D01*
X117190476Y-124264342D02*
X117142857Y-124359580D01*
X117142857Y-124359580D02*
X117095238Y-124407200D01*
X117095238Y-124407200D02*
X117000000Y-124454819D01*
X117000000Y-124454819D02*
X116714286Y-124454819D01*
X116714286Y-124454819D02*
X116619048Y-124407200D01*
X116619048Y-124407200D02*
X116571429Y-124359580D01*
D13*
%TO.C,C-1*%
X112380000Y-143270000D02*
X112380000Y-143380000D01*
X109620000Y-143380000D02*
X112380000Y-143380000D01*
X109620000Y-143270000D02*
X112380000Y-143270000D01*
X109620000Y-143270000D02*
X109620000Y-143380000D01*
X109620000Y-142000000D02*
X109620000Y-140620000D01*
X109620000Y-140620000D02*
X111000000Y-140620000D01*
%TO.C,C-2*%
X116380000Y-143270000D02*
X116380000Y-143380000D01*
X113620000Y-143380000D02*
X116380000Y-143380000D01*
X113620000Y-143270000D02*
X116380000Y-143270000D01*
X113620000Y-143270000D02*
X113620000Y-143380000D01*
X113620000Y-142000000D02*
X113620000Y-140620000D01*
X113620000Y-140620000D02*
X115000000Y-140620000D01*
%TO.C,C-3*%
X120380000Y-143270000D02*
X120380000Y-143380000D01*
X117620000Y-143380000D02*
X120380000Y-143380000D01*
X117620000Y-143270000D02*
X120380000Y-143270000D01*
X117620000Y-143270000D02*
X117620000Y-143380000D01*
X117620000Y-142000000D02*
X117620000Y-140620000D01*
X117620000Y-140620000D02*
X119000000Y-140620000D01*
%TO.C,C-4*%
X124380000Y-143270000D02*
X124380000Y-143380000D01*
X121620000Y-143380000D02*
X124380000Y-143380000D01*
X121620000Y-143270000D02*
X124380000Y-143270000D01*
X121620000Y-143270000D02*
X121620000Y-143380000D01*
X121620000Y-142000000D02*
X121620000Y-140620000D01*
X121620000Y-140620000D02*
X123000000Y-140620000D01*
%TO.C,C1*%
X112380000Y-139270000D02*
X112380000Y-139380000D01*
X109620000Y-139380000D02*
X112380000Y-139380000D01*
X109620000Y-139270000D02*
X112380000Y-139270000D01*
X109620000Y-139270000D02*
X109620000Y-139380000D01*
X109620000Y-138000000D02*
X109620000Y-136620000D01*
X109620000Y-136620000D02*
X111000000Y-136620000D01*
%TO.C,C2*%
X116380000Y-139270000D02*
X116380000Y-139380000D01*
X113620000Y-139380000D02*
X116380000Y-139380000D01*
X113620000Y-139270000D02*
X116380000Y-139270000D01*
X113620000Y-139270000D02*
X113620000Y-139380000D01*
X113620000Y-138000000D02*
X113620000Y-136620000D01*
X113620000Y-136620000D02*
X115000000Y-136620000D01*
%TO.C,C3*%
X120380000Y-139270000D02*
X120380000Y-139380000D01*
X117620000Y-139380000D02*
X120380000Y-139380000D01*
X117620000Y-139270000D02*
X120380000Y-139270000D01*
X117620000Y-139270000D02*
X117620000Y-139380000D01*
X117620000Y-138000000D02*
X117620000Y-136620000D01*
X117620000Y-136620000D02*
X119000000Y-136620000D01*
%TO.C,C4*%
X124380000Y-139270000D02*
X124380000Y-139380000D01*
X121620000Y-139380000D02*
X124380000Y-139380000D01*
X121620000Y-139270000D02*
X124380000Y-139270000D01*
X121620000Y-139270000D02*
X121620000Y-139380000D01*
X121620000Y-138000000D02*
X121620000Y-136620000D01*
X121620000Y-136620000D02*
X123000000Y-136620000D01*
%TO.C,U1*%
X100690000Y-117390000D02*
G75*
G02*
X98690000Y-117390000I-1000000J0D01*
G01*
X102340000Y-137830000D02*
X102340000Y-117390000D01*
X102340000Y-117390000D02*
X100690000Y-117390000D01*
X98690000Y-117390000D02*
X97040000Y-117390000D01*
X97040000Y-137830000D02*
X102340000Y-137830000D01*
X97040000Y-117390000D02*
X97040000Y-137830000D01*
%TO.C,Vdd1*%
X113380000Y-117270000D02*
X113380000Y-117380000D01*
X110620000Y-117380000D02*
X113380000Y-117380000D01*
X110620000Y-117270000D02*
X113380000Y-117270000D01*
X110620000Y-117270000D02*
X110620000Y-117380000D01*
X110620000Y-116000000D02*
X110620000Y-114620000D01*
X110620000Y-114620000D02*
X112000000Y-114620000D01*
%TO.C,MOSI2*%
X123620000Y-131120000D02*
X125000000Y-131120000D01*
X123620000Y-132500000D02*
X123620000Y-131120000D01*
X123620000Y-133770000D02*
X123620000Y-133880000D01*
X123620000Y-133770000D02*
X126380000Y-133770000D01*
X123620000Y-133880000D02*
X126380000Y-133880000D01*
X126380000Y-133770000D02*
X126380000Y-133880000D01*
%TO.C,MISO2*%
X123620000Y-127120000D02*
X125000000Y-127120000D01*
X123620000Y-128500000D02*
X123620000Y-127120000D01*
X123620000Y-129770000D02*
X123620000Y-129880000D01*
X123620000Y-129770000D02*
X126380000Y-129770000D01*
X123620000Y-129880000D02*
X126380000Y-129880000D01*
X126380000Y-129770000D02*
X126380000Y-129880000D01*
%TO.C,CLK2*%
X123620000Y-123120000D02*
X125000000Y-123120000D01*
X123620000Y-124500000D02*
X123620000Y-123120000D01*
X123620000Y-125770000D02*
X123620000Y-125880000D01*
X123620000Y-125770000D02*
X126380000Y-125770000D01*
X123620000Y-125880000D02*
X126380000Y-125880000D01*
X126380000Y-125770000D02*
X126380000Y-125880000D01*
%TO.C,CH7*%
X90620000Y-141120000D02*
X92000000Y-141120000D01*
X90620000Y-142500000D02*
X90620000Y-141120000D01*
X90620000Y-143770000D02*
X90620000Y-143880000D01*
X90620000Y-143770000D02*
X93380000Y-143770000D01*
X90620000Y-143880000D02*
X93380000Y-143880000D01*
X93380000Y-143770000D02*
X93380000Y-143880000D01*
%TO.C,CH0*%
X90620000Y-113120000D02*
X92000000Y-113120000D01*
X90620000Y-114500000D02*
X90620000Y-113120000D01*
X90620000Y-115770000D02*
X90620000Y-115880000D01*
X90620000Y-115770000D02*
X93380000Y-115770000D01*
X90620000Y-115880000D02*
X93380000Y-115880000D01*
X93380000Y-115770000D02*
X93380000Y-115880000D01*
%TO.C,GND1*%
X110620000Y-118620000D02*
X112000000Y-118620000D01*
X110620000Y-120000000D02*
X110620000Y-118620000D01*
X110620000Y-121270000D02*
X110620000Y-121380000D01*
X110620000Y-121270000D02*
X113380000Y-121270000D01*
X110620000Y-121380000D02*
X113380000Y-121380000D01*
X113380000Y-121270000D02*
X113380000Y-121380000D01*
%TO.C,CH2*%
X90620000Y-121120000D02*
X92000000Y-121120000D01*
X90620000Y-122500000D02*
X90620000Y-121120000D01*
X90620000Y-123770000D02*
X90620000Y-123880000D01*
X90620000Y-123770000D02*
X93380000Y-123770000D01*
X90620000Y-123880000D02*
X93380000Y-123880000D01*
X93380000Y-123770000D02*
X93380000Y-123880000D01*
%TO.C,CH4*%
X90620000Y-129120000D02*
X92000000Y-129120000D01*
X90620000Y-130500000D02*
X90620000Y-129120000D01*
X90620000Y-131770000D02*
X90620000Y-131880000D01*
X90620000Y-131770000D02*
X93380000Y-131770000D01*
X90620000Y-131880000D02*
X93380000Y-131880000D01*
X93380000Y-131770000D02*
X93380000Y-131880000D01*
%TO.C,MISO1*%
X110620000Y-126620000D02*
X112000000Y-126620000D01*
X110620000Y-128000000D02*
X110620000Y-126620000D01*
X110620000Y-129270000D02*
X110620000Y-129380000D01*
X110620000Y-129270000D02*
X113380000Y-129270000D01*
X110620000Y-129380000D02*
X113380000Y-129380000D01*
X113380000Y-129270000D02*
X113380000Y-129380000D01*
%TO.C,MOSI1*%
X110620000Y-130620000D02*
X112000000Y-130620000D01*
X110620000Y-132000000D02*
X110620000Y-130620000D01*
X110620000Y-133270000D02*
X110620000Y-133380000D01*
X110620000Y-133270000D02*
X113380000Y-133270000D01*
X110620000Y-133380000D02*
X113380000Y-133380000D01*
X113380000Y-133270000D02*
X113380000Y-133380000D01*
%TO.C,CH6*%
X90620000Y-137120000D02*
X92000000Y-137120000D01*
X90620000Y-138500000D02*
X90620000Y-137120000D01*
X90620000Y-139770000D02*
X90620000Y-139880000D01*
X90620000Y-139770000D02*
X93380000Y-139770000D01*
X90620000Y-139880000D02*
X93380000Y-139880000D01*
X93380000Y-139770000D02*
X93380000Y-139880000D01*
%TO.C,CH1*%
X90620000Y-117120000D02*
X92000000Y-117120000D01*
X90620000Y-118500000D02*
X90620000Y-117120000D01*
X90620000Y-119770000D02*
X90620000Y-119880000D01*
X90620000Y-119770000D02*
X93380000Y-119770000D01*
X90620000Y-119880000D02*
X93380000Y-119880000D01*
X93380000Y-119770000D02*
X93380000Y-119880000D01*
%TO.C,CH5*%
X90620000Y-133120000D02*
X92000000Y-133120000D01*
X90620000Y-134500000D02*
X90620000Y-133120000D01*
X90620000Y-135770000D02*
X90620000Y-135880000D01*
X90620000Y-135770000D02*
X93380000Y-135770000D01*
X90620000Y-135880000D02*
X93380000Y-135880000D01*
X93380000Y-135770000D02*
X93380000Y-135880000D01*
%TO.C,CH3*%
X90620000Y-125120000D02*
X92000000Y-125120000D01*
X90620000Y-126500000D02*
X90620000Y-125120000D01*
X90620000Y-127770000D02*
X90620000Y-127880000D01*
X90620000Y-127770000D02*
X93380000Y-127770000D01*
X90620000Y-127880000D02*
X93380000Y-127880000D01*
X93380000Y-127770000D02*
X93380000Y-127880000D01*
%TO.C,CS1*%
X105120000Y-132620000D02*
X106500000Y-132620000D01*
X105120000Y-134000000D02*
X105120000Y-132620000D01*
X105120000Y-135270000D02*
X105120000Y-135380000D01*
X105120000Y-135270000D02*
X107880000Y-135270000D01*
X105120000Y-135380000D02*
X107880000Y-135380000D01*
X107880000Y-135270000D02*
X107880000Y-135380000D01*
%TO.C,CLK3*%
X110620000Y-122620000D02*
X112000000Y-122620000D01*
X110620000Y-124000000D02*
X110620000Y-122620000D01*
X110620000Y-125270000D02*
X110620000Y-125380000D01*
X110620000Y-125270000D02*
X113380000Y-125270000D01*
X110620000Y-125380000D02*
X113380000Y-125380000D01*
X113380000Y-125270000D02*
X113380000Y-125380000D01*
%TD*%
M02*
